<mxfile host="app.diagrams.net" agent="Mozilla/5.0 (Windows NT 10.0; Win64; x64) AppleWebKit/537.36 (KHTML, like Gecko) Chrome/128.0.0.0 Safari/537.36 OPR/114.0.0.0" version="24.8.6">
  <diagram name="Page-1" id="5f0bae14-7c28-e335-631c-24af17079c00">
    <mxGraphModel dx="2739" dy="909" grid="1" gridSize="10" guides="1" tooltips="1" connect="1" arrows="1" fold="1" page="1" pageScale="1" pageWidth="1100" pageHeight="850" background="none" math="0" shadow="0">
      <root>
        <mxCell id="0" />
        <mxCell id="1" parent="0" />
        <mxCell id="Dq3fjJseQQdsBQKCR3qx-8" value="Order Management" style="verticalAlign=top;align=left;spacingTop=8;spacingLeft=2;spacingRight=12;shape=cube;size=5;direction=south;fontStyle=4;html=1;rounded=0;shadow=0;comic=0;labelBackgroundColor=none;strokeWidth=1;fontFamily=Verdana;fontSize=12" vertex="1" parent="1">
          <mxGeometry x="-930" y="140" width="800" height="535" as="geometry" />
        </mxCell>
        <mxCell id="Dq3fjJseQQdsBQKCR3qx-14" value="ProductService  " style="verticalAlign=top;align=left;spacingTop=8;spacingLeft=2;spacingRight=12;shape=cube;size=10;direction=south;fontStyle=4;html=1;rounded=0;shadow=0;comic=0;labelBackgroundColor=none;strokeWidth=1;fontFamily=Verdana;fontSize=12" vertex="1" parent="1">
          <mxGeometry x="-330" y="170" width="180" height="95" as="geometry" />
        </mxCell>
        <mxCell id="Dq3fjJseQQdsBQKCR3qx-16" value="ProductService  " style="shape=component;align=left;spacingLeft=36;rounded=0;shadow=0;comic=0;labelBackgroundColor=none;strokeWidth=1;fontFamily=Verdana;fontSize=12;html=1;" vertex="1" parent="1">
          <mxGeometry x="-305" y="215" width="140" height="40" as="geometry" />
        </mxCell>
        <mxCell id="Dq3fjJseQQdsBQKCR3qx-66" value="&lt;font style=&quot;font-size: 12px;&quot;&gt;IProductService&lt;/font&gt;" style="text;html=1;align=center;verticalAlign=middle;resizable=0;points=[];autosize=1;strokeColor=none;fillColor=none;spacing=2;" vertex="1" parent="1">
          <mxGeometry x="-300" y="315" width="110" height="30" as="geometry" />
        </mxCell>
        <mxCell id="Dq3fjJseQQdsBQKCR3qx-68" value="OrderManagementFacade" style="verticalAlign=top;align=left;spacingTop=8;spacingLeft=2;spacingRight=12;shape=cube;size=10;direction=south;fontStyle=4;html=1;rounded=0;shadow=0;comic=0;labelBackgroundColor=none;strokeWidth=1;fontFamily=Verdana;fontSize=12" vertex="1" parent="1">
          <mxGeometry x="-610" y="320" width="180" height="50" as="geometry" />
        </mxCell>
        <mxCell id="Dq3fjJseQQdsBQKCR3qx-70" value="PaymentService    " style="verticalAlign=top;align=left;spacingTop=8;spacingLeft=2;spacingRight=12;shape=cube;size=10;direction=south;fontStyle=4;html=1;rounded=0;shadow=0;comic=0;labelBackgroundColor=none;strokeWidth=1;fontFamily=Verdana;fontSize=12" vertex="1" parent="1">
          <mxGeometry x="-337.5" y="435" width="185" height="95" as="geometry" />
        </mxCell>
        <mxCell id="Dq3fjJseQQdsBQKCR3qx-71" value="PaymentService    " style="shape=component;align=left;spacingLeft=36;rounded=0;shadow=0;comic=0;labelBackgroundColor=none;strokeWidth=1;fontFamily=Verdana;fontSize=12;html=1;" vertex="1" parent="1">
          <mxGeometry x="-312.5" y="470" width="140" height="40" as="geometry" />
        </mxCell>
        <mxCell id="Dq3fjJseQQdsBQKCR3qx-72" value="NotificationService     " style="verticalAlign=top;align=left;spacingTop=8;spacingLeft=2;spacingRight=12;shape=cube;size=10;direction=south;fontStyle=4;html=1;rounded=0;shadow=0;comic=0;labelBackgroundColor=none;strokeWidth=1;fontFamily=Verdana;fontSize=12" vertex="1" parent="1">
          <mxGeometry x="-691" y="585" width="320" height="70" as="geometry" />
        </mxCell>
        <mxCell id="Dq3fjJseQQdsBQKCR3qx-73" value="NotificationService   " style="shape=component;align=left;spacingLeft=36;rounded=0;shadow=0;comic=0;labelBackgroundColor=none;strokeWidth=1;fontFamily=Verdana;fontSize=12;html=1;" vertex="1" parent="1">
          <mxGeometry x="-561" y="605" width="160" height="40" as="geometry" />
        </mxCell>
        <mxCell id="Dq3fjJseQQdsBQKCR3qx-74" value="OrderService      " style="verticalAlign=top;align=left;spacingTop=8;spacingLeft=2;spacingRight=12;shape=cube;size=10;direction=south;fontStyle=4;html=1;rounded=0;shadow=0;comic=0;labelBackgroundColor=none;strokeWidth=1;fontFamily=Verdana;fontSize=12" vertex="1" parent="1">
          <mxGeometry x="-882" y="180" width="182" height="100" as="geometry" />
        </mxCell>
        <mxCell id="Dq3fjJseQQdsBQKCR3qx-75" value="OrderService      " style="shape=component;align=left;spacingLeft=36;rounded=0;shadow=0;comic=0;labelBackgroundColor=none;strokeWidth=1;fontFamily=Verdana;fontSize=12;html=1;" vertex="1" parent="1">
          <mxGeometry x="-861" y="225" width="140" height="40" as="geometry" />
        </mxCell>
        <mxCell id="Dq3fjJseQQdsBQKCR3qx-76" value="UserService           " style="verticalAlign=top;align=left;spacingTop=8;spacingLeft=2;spacingRight=12;shape=cube;size=10;direction=south;fontStyle=4;html=1;rounded=0;shadow=0;comic=0;labelBackgroundColor=none;strokeWidth=1;fontFamily=Verdana;fontSize=12" vertex="1" parent="1">
          <mxGeometry x="-890" y="440" width="182" height="90" as="geometry" />
        </mxCell>
        <mxCell id="Dq3fjJseQQdsBQKCR3qx-77" value="UserService           " style="shape=component;align=left;spacingLeft=36;rounded=0;shadow=0;comic=0;labelBackgroundColor=none;strokeWidth=1;fontFamily=Verdana;fontSize=12;html=1;" vertex="1" parent="1">
          <mxGeometry x="-869" y="480" width="140" height="40" as="geometry" />
        </mxCell>
        <mxCell id="Dq3fjJseQQdsBQKCR3qx-92" value="" style="html=1;rounded=0;rotation=-180;" vertex="1" parent="1">
          <mxGeometry x="-140" y="295" width="20" height="20" as="geometry" />
        </mxCell>
        <mxCell id="Dq3fjJseQQdsBQKCR3qx-94" value="" style="rounded=0;orthogonalLoop=1;jettySize=auto;html=1;endArrow=halfCircle;endFill=0;endSize=12;strokeWidth=1;sketch=0;exitX=1;exitY=0.5;exitDx=0;exitDy=0;textShadow=0;labelBorderColor=none;" edge="1" parent="1" source="Dq3fjJseQQdsBQKCR3qx-92" target="Dq3fjJseQQdsBQKCR3qx-107">
          <mxGeometry relative="1" as="geometry">
            <mxPoint x="-60" y="325" as="sourcePoint" />
            <mxPoint x="-230" y="305" as="targetPoint" />
          </mxGeometry>
        </mxCell>
        <mxCell id="Dq3fjJseQQdsBQKCR3qx-106" value="" style="rounded=0;orthogonalLoop=1;jettySize=auto;html=1;endArrow=oval;endFill=0;sketch=0;sourcePerimeterSpacing=0;targetPerimeterSpacing=0;endSize=22;exitX=0;exitY=0;exitDx=70;exitDy=145;exitPerimeter=0;" edge="1" parent="1" source="Dq3fjJseQQdsBQKCR3qx-107">
          <mxGeometry relative="1" as="geometry">
            <mxPoint x="-200" y="285" as="sourcePoint" />
            <mxPoint x="-245" y="305" as="targetPoint" />
          </mxGeometry>
        </mxCell>
        <mxCell id="Dq3fjJseQQdsBQKCR3qx-109" value="" style="rounded=0;orthogonalLoop=1;jettySize=auto;html=1;endArrow=oval;endFill=0;sketch=0;sourcePerimeterSpacing=0;targetPerimeterSpacing=0;endSize=22;exitX=0;exitY=0;exitDx=95;exitDy=95;exitPerimeter=0;textShadow=0;" edge="1" parent="1" source="Dq3fjJseQQdsBQKCR3qx-14" target="Dq3fjJseQQdsBQKCR3qx-107">
          <mxGeometry relative="1" as="geometry">
            <mxPoint x="-245" y="265" as="sourcePoint" />
            <mxPoint x="-245" y="305" as="targetPoint" />
          </mxGeometry>
        </mxCell>
        <mxCell id="Dq3fjJseQQdsBQKCR3qx-107" value="" style="ellipse;whiteSpace=wrap;html=1;align=center;aspect=fixed;fillColor=none;strokeColor=none;resizable=0;perimeter=centerPerimeter;rotatable=0;allowArrows=0;points=[];outlineConnect=1;" vertex="1" parent="1">
          <mxGeometry x="-250" y="300" width="10" height="10" as="geometry" />
        </mxCell>
        <mxCell id="Dq3fjJseQQdsBQKCR3qx-110" value="" style="rounded=0;orthogonalLoop=1;jettySize=auto;html=1;endArrow=halfCircle;endFill=0;endSize=12;strokeWidth=1;sketch=0;entryX=0.25;entryY=0.925;entryDx=0;entryDy=0;entryPerimeter=0;exitX=0.309;exitY=0;exitDx=0;exitDy=0;exitPerimeter=0;" edge="1" parent="1" source="Dq3fjJseQQdsBQKCR3qx-68" target="Dq3fjJseQQdsBQKCR3qx-107">
          <mxGeometry relative="1" as="geometry">
            <mxPoint x="-370" y="375" as="sourcePoint" />
            <mxPoint x="-310" y="335" as="targetPoint" />
            <Array as="points">
              <mxPoint x="-380" y="335" />
              <mxPoint x="-380" y="305" />
            </Array>
          </mxGeometry>
        </mxCell>
        <mxCell id="Dq3fjJseQQdsBQKCR3qx-111" value="" style="rounded=0;orthogonalLoop=1;jettySize=auto;html=1;endArrow=halfCircle;endFill=0;endSize=12;strokeWidth=1;sketch=0;entryX=0.25;entryY=0.925;entryDx=0;entryDy=0;entryPerimeter=0;exitX=0.7;exitY=-0.003;exitDx=0;exitDy=0;exitPerimeter=0;" edge="1" target="Dq3fjJseQQdsBQKCR3qx-114" parent="1" source="Dq3fjJseQQdsBQKCR3qx-68">
          <mxGeometry relative="1" as="geometry">
            <mxPoint x="-380" y="335" as="sourcePoint" />
            <mxPoint x="-320" y="425" as="targetPoint" />
            <Array as="points">
              <mxPoint x="-370" y="355" />
              <mxPoint x="-370" y="395" />
            </Array>
          </mxGeometry>
        </mxCell>
        <mxCell id="Dq3fjJseQQdsBQKCR3qx-112" value="" style="rounded=0;orthogonalLoop=1;jettySize=auto;html=1;endArrow=halfCircle;endFill=0;endSize=12;strokeWidth=1;sketch=0;exitX=1;exitY=0.5;exitDx=0;exitDy=0;" edge="1" target="Dq3fjJseQQdsBQKCR3qx-114" parent="1" source="Dq3fjJseQQdsBQKCR3qx-115">
          <mxGeometry relative="1" as="geometry">
            <mxPoint x="-90" y="395" as="sourcePoint" />
            <mxPoint x="-240" y="395" as="targetPoint" />
          </mxGeometry>
        </mxCell>
        <mxCell id="Dq3fjJseQQdsBQKCR3qx-113" value="" style="rounded=0;orthogonalLoop=1;jettySize=auto;html=1;endArrow=oval;endFill=0;sketch=0;sourcePerimeterSpacing=0;targetPerimeterSpacing=0;endSize=22;exitX=0;exitY=0;exitDx=0;exitDy=87.5;exitPerimeter=0;" edge="1" target="Dq3fjJseQQdsBQKCR3qx-114" parent="1" source="Dq3fjJseQQdsBQKCR3qx-70">
          <mxGeometry relative="1" as="geometry">
            <mxPoint x="-255" y="355" as="sourcePoint" />
            <mxPoint x="-255" y="395" as="targetPoint" />
          </mxGeometry>
        </mxCell>
        <mxCell id="Dq3fjJseQQdsBQKCR3qx-114" value="" style="ellipse;whiteSpace=wrap;html=1;align=center;aspect=fixed;fillColor=none;strokeColor=none;resizable=0;perimeter=centerPerimeter;rotatable=0;allowArrows=0;points=[];outlineConnect=1;" vertex="1" parent="1">
          <mxGeometry x="-245" y="390" width="10" height="10" as="geometry" />
        </mxCell>
        <mxCell id="Dq3fjJseQQdsBQKCR3qx-115" value="" style="html=1;rounded=0;rotation=-180;" vertex="1" parent="1">
          <mxGeometry x="-140" y="385" width="20" height="20" as="geometry" />
        </mxCell>
        <mxCell id="Dq3fjJseQQdsBQKCR3qx-116" value="&lt;font style=&quot;font-size: 12px;&quot;&gt;IPaymentService&lt;/font&gt;" style="text;html=1;align=center;verticalAlign=middle;resizable=0;points=[];autosize=1;strokeColor=none;fillColor=none;spacing=2;" vertex="1" parent="1">
          <mxGeometry x="-295" y="355" width="110" height="30" as="geometry" />
        </mxCell>
        <mxCell id="Dq3fjJseQQdsBQKCR3qx-121" value="&lt;font style=&quot;font-size: 12px;&quot;&gt;IProductService&lt;/font&gt;" style="text;html=1;align=center;verticalAlign=middle;resizable=0;points=[];autosize=1;strokeColor=none;fillColor=none;spacing=2;" vertex="1" parent="1">
          <mxGeometry x="-130" y="265" width="110" height="30" as="geometry" />
        </mxCell>
        <mxCell id="Dq3fjJseQQdsBQKCR3qx-123" value="" style="ellipse;whiteSpace=wrap;html=1;align=center;aspect=fixed;fillColor=none;strokeColor=none;resizable=0;perimeter=centerPerimeter;rotatable=0;allowArrows=0;points=[];outlineConnect=1;" vertex="1" parent="1">
          <mxGeometry x="-80" y="390" width="10" height="10" as="geometry" />
        </mxCell>
        <mxCell id="Dq3fjJseQQdsBQKCR3qx-124" value="" style="rounded=0;orthogonalLoop=1;jettySize=auto;html=1;endArrow=oval;endFill=0;sketch=0;sourcePerimeterSpacing=0;targetPerimeterSpacing=0;endSize=22;exitX=0;exitY=0.5;exitDx=0;exitDy=0;" edge="1" target="Dq3fjJseQQdsBQKCR3qx-123" parent="1" source="Dq3fjJseQQdsBQKCR3qx-115">
          <mxGeometry relative="1" as="geometry">
            <mxPoint x="-122.5" y="395" as="sourcePoint" />
            <mxPoint x="-75" y="395" as="targetPoint" />
          </mxGeometry>
        </mxCell>
        <mxCell id="Dq3fjJseQQdsBQKCR3qx-125" value="" style="ellipse;whiteSpace=wrap;html=1;align=center;aspect=fixed;fillColor=none;strokeColor=none;resizable=0;perimeter=centerPerimeter;rotatable=0;allowArrows=0;points=[];outlineConnect=1;" vertex="1" parent="1">
          <mxGeometry x="-80" y="300" width="10" height="10" as="geometry" />
        </mxCell>
        <mxCell id="Dq3fjJseQQdsBQKCR3qx-126" value="" style="rounded=0;orthogonalLoop=1;jettySize=auto;html=1;endArrow=oval;endFill=0;sketch=0;sourcePerimeterSpacing=0;targetPerimeterSpacing=0;endSize=22;exitX=0;exitY=0.5;exitDx=0;exitDy=0;" edge="1" target="Dq3fjJseQQdsBQKCR3qx-125" parent="1" source="Dq3fjJseQQdsBQKCR3qx-92">
          <mxGeometry relative="1" as="geometry">
            <mxPoint x="-122.5" y="305" as="sourcePoint" />
            <mxPoint x="-75" y="305" as="targetPoint" />
          </mxGeometry>
        </mxCell>
        <mxCell id="Dq3fjJseQQdsBQKCR3qx-129" value="&lt;font style=&quot;font-size: 12px;&quot;&gt;IPaymentService&lt;/font&gt;" style="text;html=1;align=center;verticalAlign=middle;resizable=0;points=[];autosize=1;strokeColor=none;fillColor=none;spacing=2;" vertex="1" parent="1">
          <mxGeometry x="-130" y="405" width="110" height="30" as="geometry" />
        </mxCell>
        <mxCell id="Dq3fjJseQQdsBQKCR3qx-130" value="" style="rounded=0;orthogonalLoop=1;jettySize=auto;html=1;endArrow=halfCircle;endFill=0;endSize=12;strokeWidth=1;sketch=0;entryX=0.25;entryY=0.925;entryDx=0;entryDy=0;entryPerimeter=0;exitX=1.033;exitY=0.565;exitDx=0;exitDy=0;exitPerimeter=0;" edge="1" target="Dq3fjJseQQdsBQKCR3qx-133" parent="1" source="Dq3fjJseQQdsBQKCR3qx-68">
          <mxGeometry relative="1" as="geometry">
            <mxPoint x="-525" y="345" as="sourcePoint" />
            <mxPoint x="-611" y="575" as="targetPoint" />
            <Array as="points" />
          </mxGeometry>
        </mxCell>
        <mxCell id="Dq3fjJseQQdsBQKCR3qx-131" value="" style="rounded=0;orthogonalLoop=1;jettySize=auto;html=1;endArrow=halfCircle;endFill=0;endSize=12;strokeWidth=1;sketch=0;exitX=0;exitY=0.5;exitDx=0;exitDy=0;" edge="1" source="Dq3fjJseQQdsBQKCR3qx-134" target="Dq3fjJseQQdsBQKCR3qx-133" parent="1">
          <mxGeometry relative="1" as="geometry">
            <mxPoint x="-660" y="545" as="sourcePoint" />
            <mxPoint x="-531" y="545" as="targetPoint" />
          </mxGeometry>
        </mxCell>
        <mxCell id="Dq3fjJseQQdsBQKCR3qx-132" value="" style="rounded=0;orthogonalLoop=1;jettySize=auto;html=1;endArrow=oval;endFill=0;sketch=0;sourcePerimeterSpacing=0;targetPerimeterSpacing=0;endSize=22;exitX=0;exitY=0.496;exitDx=0;exitDy=0;exitPerimeter=0;" edge="1" target="Dq3fjJseQQdsBQKCR3qx-133" parent="1" source="Dq3fjJseQQdsBQKCR3qx-72">
          <mxGeometry relative="1" as="geometry">
            <mxPoint x="-526" y="590" as="sourcePoint" />
            <mxPoint x="-546" y="545" as="targetPoint" />
          </mxGeometry>
        </mxCell>
        <mxCell id="Dq3fjJseQQdsBQKCR3qx-133" value="" style="ellipse;whiteSpace=wrap;html=1;align=center;aspect=fixed;fillColor=none;strokeColor=none;resizable=0;perimeter=centerPerimeter;rotatable=0;allowArrows=0;points=[];outlineConnect=1;" vertex="1" parent="1">
          <mxGeometry x="-536" y="540" width="10" height="10" as="geometry" />
        </mxCell>
        <mxCell id="Dq3fjJseQQdsBQKCR3qx-134" value="" style="html=1;rounded=0;rotation=-180;" vertex="1" parent="1">
          <mxGeometry x="-940" y="535" width="20" height="20" as="geometry" />
        </mxCell>
        <mxCell id="Dq3fjJseQQdsBQKCR3qx-136" value="" style="ellipse;whiteSpace=wrap;html=1;align=center;aspect=fixed;fillColor=none;strokeColor=none;resizable=0;perimeter=centerPerimeter;rotatable=0;allowArrows=0;points=[];outlineConnect=1;" vertex="1" parent="1">
          <mxGeometry x="-1005" y="540" width="10" height="10" as="geometry" />
        </mxCell>
        <mxCell id="Dq3fjJseQQdsBQKCR3qx-137" value="" style="rounded=0;orthogonalLoop=1;jettySize=auto;html=1;endArrow=oval;endFill=0;sketch=0;sourcePerimeterSpacing=0;targetPerimeterSpacing=0;endSize=22;exitX=1;exitY=0.5;exitDx=0;exitDy=0;entryX=0.046;entryY=-0.092;entryDx=0;entryDy=0;entryPerimeter=0;" edge="1" source="Dq3fjJseQQdsBQKCR3qx-134" target="Dq3fjJseQQdsBQKCR3qx-136" parent="1">
          <mxGeometry relative="1" as="geometry">
            <mxPoint x="-1075" y="565" as="sourcePoint" />
            <mxPoint x="-1025" y="530" as="targetPoint" />
          </mxGeometry>
        </mxCell>
        <mxCell id="Dq3fjJseQQdsBQKCR3qx-138" value="&lt;font style=&quot;font-size: 12px;&quot;&gt;INotificationService&lt;/font&gt;" style="text;html=1;align=center;verticalAlign=middle;resizable=0;points=[];autosize=1;strokeColor=none;fillColor=none;spacing=2;" vertex="1" parent="1">
          <mxGeometry x="-1060" y="500" width="130" height="30" as="geometry" />
        </mxCell>
        <mxCell id="Dq3fjJseQQdsBQKCR3qx-140" value="" style="rounded=0;orthogonalLoop=1;jettySize=auto;html=1;endArrow=halfCircle;endFill=0;endSize=12;strokeWidth=1;sketch=0;entryX=0.25;entryY=0.925;entryDx=0;entryDy=0;entryPerimeter=0;exitX=0.411;exitY=1.001;exitDx=0;exitDy=0;exitPerimeter=0;" edge="1" target="Dq3fjJseQQdsBQKCR3qx-143" parent="1" source="Dq3fjJseQQdsBQKCR3qx-68">
          <mxGeometry relative="1" as="geometry">
            <mxPoint x="-610" y="340" as="sourcePoint" />
            <mxPoint x="-871" y="350" as="targetPoint" />
            <Array as="points">
              <mxPoint x="-650" y="340" />
              <mxPoint x="-650" y="320" />
            </Array>
          </mxGeometry>
        </mxCell>
        <mxCell id="Dq3fjJseQQdsBQKCR3qx-141" value="" style="rounded=0;orthogonalLoop=1;jettySize=auto;html=1;endArrow=halfCircle;endFill=0;endSize=12;strokeWidth=1;sketch=0;exitX=1;exitY=0.5;exitDx=0;exitDy=0;" edge="1" source="Dq3fjJseQQdsBQKCR3qx-144" target="Dq3fjJseQQdsBQKCR3qx-143" parent="1">
          <mxGeometry relative="1" as="geometry">
            <mxPoint x="-641" y="320" as="sourcePoint" />
            <mxPoint x="-791" y="320" as="targetPoint" />
          </mxGeometry>
        </mxCell>
        <mxCell id="Dq3fjJseQQdsBQKCR3qx-142" value="" style="rounded=0;orthogonalLoop=1;jettySize=auto;html=1;endArrow=oval;endFill=0;sketch=0;sourcePerimeterSpacing=0;targetPerimeterSpacing=0;endSize=22;exitX=0;exitY=0;exitDx=100;exitDy=96;exitPerimeter=0;" edge="1" target="Dq3fjJseQQdsBQKCR3qx-143" parent="1" source="Dq3fjJseQQdsBQKCR3qx-74">
          <mxGeometry relative="1" as="geometry">
            <mxPoint x="-790" y="285" as="sourcePoint" />
            <mxPoint x="-806" y="315" as="targetPoint" />
          </mxGeometry>
        </mxCell>
        <mxCell id="Dq3fjJseQQdsBQKCR3qx-143" value="" style="ellipse;whiteSpace=wrap;html=1;align=center;aspect=fixed;fillColor=none;strokeColor=none;resizable=0;perimeter=centerPerimeter;rotatable=0;allowArrows=0;points=[];outlineConnect=1;" vertex="1" parent="1">
          <mxGeometry x="-796" y="315" width="10" height="10" as="geometry" />
        </mxCell>
        <mxCell id="Dq3fjJseQQdsBQKCR3qx-144" value="" style="html=1;rounded=0;rotation=-180;" vertex="1" parent="1">
          <mxGeometry x="-940" y="310" width="20" height="20" as="geometry" />
        </mxCell>
        <mxCell id="Dq3fjJseQQdsBQKCR3qx-145" value="" style="ellipse;whiteSpace=wrap;html=1;align=center;aspect=fixed;fillColor=none;strokeColor=none;resizable=0;perimeter=centerPerimeter;rotatable=0;allowArrows=0;points=[];outlineConnect=1;" vertex="1" parent="1">
          <mxGeometry x="-995" y="315" width="10" height="10" as="geometry" />
        </mxCell>
        <mxCell id="Dq3fjJseQQdsBQKCR3qx-146" value="" style="rounded=0;orthogonalLoop=1;jettySize=auto;html=1;endArrow=oval;endFill=0;sketch=0;sourcePerimeterSpacing=0;targetPerimeterSpacing=0;endSize=22;exitX=1;exitY=0.5;exitDx=0;exitDy=0;entryX=0.046;entryY=-0.092;entryDx=0;entryDy=0;entryPerimeter=0;" edge="1" source="Dq3fjJseQQdsBQKCR3qx-144" target="Dq3fjJseQQdsBQKCR3qx-145" parent="1">
          <mxGeometry relative="1" as="geometry">
            <mxPoint x="-1065" y="340" as="sourcePoint" />
            <mxPoint x="-1015" y="305" as="targetPoint" />
          </mxGeometry>
        </mxCell>
        <mxCell id="Dq3fjJseQQdsBQKCR3qx-147" value="&lt;font style=&quot;font-size: 12px;&quot;&gt;IOrderService&lt;/font&gt;" style="text;html=1;align=center;verticalAlign=middle;resizable=0;points=[];autosize=1;strokeColor=none;fillColor=none;spacing=2;" vertex="1" parent="1">
          <mxGeometry x="-1040" y="270" width="100" height="30" as="geometry" />
        </mxCell>
        <mxCell id="Dq3fjJseQQdsBQKCR3qx-148" value="&lt;font style=&quot;font-size: 12px;&quot;&gt;IOrderService&lt;/font&gt;" style="text;html=1;align=center;verticalAlign=middle;resizable=0;points=[];autosize=1;strokeColor=none;fillColor=none;spacing=2;" vertex="1" parent="1">
          <mxGeometry x="-841" y="330" width="100" height="30" as="geometry" />
        </mxCell>
        <mxCell id="Dq3fjJseQQdsBQKCR3qx-149" value="" style="rounded=0;orthogonalLoop=1;jettySize=auto;html=1;endArrow=halfCircle;endFill=0;endSize=12;strokeWidth=1;sketch=0;entryX=0.25;entryY=0.925;entryDx=0;entryDy=0;entryPerimeter=0;exitX=0.854;exitY=0.996;exitDx=0;exitDy=0;exitPerimeter=0;" edge="1" target="Dq3fjJseQQdsBQKCR3qx-152" parent="1" source="Dq3fjJseQQdsBQKCR3qx-68">
          <mxGeometry relative="1" as="geometry">
            <mxPoint x="-610" y="422.5" as="sourcePoint" />
            <mxPoint x="-871" y="432.5" as="targetPoint" />
            <Array as="points">
              <mxPoint x="-650" y="365" />
              <mxPoint x="-650" y="402.5" />
            </Array>
          </mxGeometry>
        </mxCell>
        <mxCell id="Dq3fjJseQQdsBQKCR3qx-150" value="" style="rounded=0;orthogonalLoop=1;jettySize=auto;html=1;endArrow=halfCircle;endFill=0;endSize=12;strokeWidth=1;sketch=0;exitX=1;exitY=0.5;exitDx=0;exitDy=0;" edge="1" source="Dq3fjJseQQdsBQKCR3qx-153" target="Dq3fjJseQQdsBQKCR3qx-152" parent="1">
          <mxGeometry relative="1" as="geometry">
            <mxPoint x="-641" y="402.5" as="sourcePoint" />
            <mxPoint x="-791" y="402.5" as="targetPoint" />
          </mxGeometry>
        </mxCell>
        <mxCell id="Dq3fjJseQQdsBQKCR3qx-151" value="" style="rounded=0;orthogonalLoop=1;jettySize=auto;html=1;endArrow=oval;endFill=0;sketch=0;sourcePerimeterSpacing=0;targetPerimeterSpacing=0;endSize=22;exitX=0;exitY=0;exitDx=0;exitDy=86;exitPerimeter=0;" edge="1" target="Dq3fjJseQQdsBQKCR3qx-152" parent="1" source="Dq3fjJseQQdsBQKCR3qx-76">
          <mxGeometry relative="1" as="geometry">
            <mxPoint x="-796" y="347.5" as="sourcePoint" />
            <mxPoint x="-806" y="397.5" as="targetPoint" />
          </mxGeometry>
        </mxCell>
        <mxCell id="Dq3fjJseQQdsBQKCR3qx-152" value="" style="ellipse;whiteSpace=wrap;html=1;align=center;aspect=fixed;fillColor=none;strokeColor=none;resizable=0;perimeter=centerPerimeter;rotatable=0;allowArrows=0;points=[];outlineConnect=1;" vertex="1" parent="1">
          <mxGeometry x="-796" y="397.5" width="10" height="10" as="geometry" />
        </mxCell>
        <mxCell id="Dq3fjJseQQdsBQKCR3qx-153" value="" style="html=1;rounded=0;rotation=-180;" vertex="1" parent="1">
          <mxGeometry x="-940" y="392.5" width="20" height="20" as="geometry" />
        </mxCell>
        <mxCell id="Dq3fjJseQQdsBQKCR3qx-154" value="" style="ellipse;whiteSpace=wrap;html=1;align=center;aspect=fixed;fillColor=none;strokeColor=none;resizable=0;perimeter=centerPerimeter;rotatable=0;allowArrows=0;points=[];outlineConnect=1;" vertex="1" parent="1">
          <mxGeometry x="-995" y="397.5" width="10" height="10" as="geometry" />
        </mxCell>
        <mxCell id="Dq3fjJseQQdsBQKCR3qx-155" value="" style="rounded=0;orthogonalLoop=1;jettySize=auto;html=1;endArrow=oval;endFill=0;sketch=0;sourcePerimeterSpacing=0;targetPerimeterSpacing=0;endSize=22;exitX=1;exitY=0.5;exitDx=0;exitDy=0;entryX=0.046;entryY=-0.092;entryDx=0;entryDy=0;entryPerimeter=0;" edge="1" source="Dq3fjJseQQdsBQKCR3qx-153" target="Dq3fjJseQQdsBQKCR3qx-154" parent="1">
          <mxGeometry relative="1" as="geometry">
            <mxPoint x="-1065" y="422.5" as="sourcePoint" />
            <mxPoint x="-1015" y="387.5" as="targetPoint" />
          </mxGeometry>
        </mxCell>
        <mxCell id="Dq3fjJseQQdsBQKCR3qx-156" value="&lt;font style=&quot;font-size: 12px;&quot;&gt;IUserService&lt;/font&gt;" style="text;html=1;align=center;verticalAlign=middle;resizable=0;points=[];autosize=1;strokeColor=none;fillColor=none;spacing=2;" vertex="1" parent="1">
          <mxGeometry x="-1035" y="412.5" width="90" height="30" as="geometry" />
        </mxCell>
        <mxCell id="Dq3fjJseQQdsBQKCR3qx-157" value="&lt;font style=&quot;font-size: 12px;&quot;&gt;IUserService&lt;/font&gt;" style="text;html=1;align=center;verticalAlign=middle;resizable=0;points=[];autosize=1;strokeColor=none;fillColor=none;spacing=2;" vertex="1" parent="1">
          <mxGeometry x="-836" y="362.5" width="90" height="30" as="geometry" />
        </mxCell>
        <mxCell id="Dq3fjJseQQdsBQKCR3qx-158" value="&lt;font style=&quot;font-size: 12px;&quot;&gt;INotificationService&lt;/font&gt;" style="text;html=1;align=center;verticalAlign=middle;resizable=0;points=[];autosize=1;strokeColor=none;fillColor=none;spacing=2;" vertex="1" parent="1">
          <mxGeometry x="-526" y="530" width="130" height="30" as="geometry" />
        </mxCell>
      </root>
    </mxGraphModel>
  </diagram>
</mxfile>
